<mxfile host="app.diagrams.net" modified="2024-05-22T14:21:33.678Z" agent="Mozilla/5.0 (Windows NT 10.0; Win64; x64) AppleWebKit/537.36 (KHTML, like Gecko) Chrome/121.0.0.0 Safari/537.36" etag="0sYEoq4D-5OCKSf0aNCt" version="24.4.6" type="device">
  <diagram name="Página-1" id="EUpcBxGOUqpETR9F9uDf">
    <mxGraphModel dx="1434" dy="782" grid="1" gridSize="10" guides="1" tooltips="1" connect="1" arrows="1" fold="1" page="1" pageScale="1" pageWidth="827" pageHeight="1169" math="0" shadow="0">
      <root>
        <mxCell id="0" />
        <mxCell id="1" parent="0" />
        <mxCell id="CemlTMULlmYV_-oVux1v-20" value="" style="edgeStyle=orthogonalEdgeStyle;rounded=0;orthogonalLoop=1;jettySize=auto;html=1;" edge="1" parent="1" source="CemlTMULlmYV_-oVux1v-1" target="CemlTMULlmYV_-oVux1v-19">
          <mxGeometry relative="1" as="geometry" />
        </mxCell>
        <mxCell id="CemlTMULlmYV_-oVux1v-1" value="Informações do usuário" style="ellipse;whiteSpace=wrap;html=1;" vertex="1" parent="1">
          <mxGeometry x="340" y="10" width="120" height="80" as="geometry" />
        </mxCell>
        <mxCell id="CemlTMULlmYV_-oVux1v-6" value="" style="edgeStyle=orthogonalEdgeStyle;rounded=0;orthogonalLoop=1;jettySize=auto;html=1;" edge="1" parent="1" source="CemlTMULlmYV_-oVux1v-3" target="CemlTMULlmYV_-oVux1v-5">
          <mxGeometry relative="1" as="geometry" />
        </mxCell>
        <mxCell id="CemlTMULlmYV_-oVux1v-3" value="Cadastrar cliente" style="rounded=0;whiteSpace=wrap;html=1;" vertex="1" parent="1">
          <mxGeometry x="550" y="270" width="120" height="60" as="geometry" />
        </mxCell>
        <mxCell id="CemlTMULlmYV_-oVux1v-8" value="" style="edgeStyle=orthogonalEdgeStyle;rounded=0;orthogonalLoop=1;jettySize=auto;html=1;" edge="1" parent="1" source="CemlTMULlmYV_-oVux1v-5" target="CemlTMULlmYV_-oVux1v-7">
          <mxGeometry relative="1" as="geometry" />
        </mxCell>
        <mxCell id="CemlTMULlmYV_-oVux1v-5" value="Dados do cliente" style="whiteSpace=wrap;html=1;rounded=0;" vertex="1" parent="1">
          <mxGeometry x="550" y="360" width="120" height="60" as="geometry" />
        </mxCell>
        <mxCell id="CemlTMULlmYV_-oVux1v-10" value="" style="edgeStyle=orthogonalEdgeStyle;rounded=0;orthogonalLoop=1;jettySize=auto;html=1;" edge="1" parent="1" source="CemlTMULlmYV_-oVux1v-7" target="CemlTMULlmYV_-oVux1v-9">
          <mxGeometry relative="1" as="geometry" />
        </mxCell>
        <mxCell id="CemlTMULlmYV_-oVux1v-7" value="Nome" style="whiteSpace=wrap;html=1;rounded=0;" vertex="1" parent="1">
          <mxGeometry x="550" y="460" width="120" height="60" as="geometry" />
        </mxCell>
        <mxCell id="CemlTMULlmYV_-oVux1v-12" value="" style="edgeStyle=orthogonalEdgeStyle;rounded=0;orthogonalLoop=1;jettySize=auto;html=1;" edge="1" parent="1" source="CemlTMULlmYV_-oVux1v-9" target="CemlTMULlmYV_-oVux1v-11">
          <mxGeometry relative="1" as="geometry" />
        </mxCell>
        <mxCell id="CemlTMULlmYV_-oVux1v-9" value="Data de nascimento" style="whiteSpace=wrap;html=1;rounded=0;" vertex="1" parent="1">
          <mxGeometry x="550" y="560" width="120" height="60" as="geometry" />
        </mxCell>
        <mxCell id="CemlTMULlmYV_-oVux1v-16" value="" style="edgeStyle=orthogonalEdgeStyle;rounded=0;orthogonalLoop=1;jettySize=auto;html=1;" edge="1" parent="1" source="CemlTMULlmYV_-oVux1v-11" target="CemlTMULlmYV_-oVux1v-15">
          <mxGeometry relative="1" as="geometry" />
        </mxCell>
        <mxCell id="CemlTMULlmYV_-oVux1v-11" value="Telefone" style="whiteSpace=wrap;html=1;rounded=0;" vertex="1" parent="1">
          <mxGeometry x="550" y="660" width="120" height="60" as="geometry" />
        </mxCell>
        <mxCell id="CemlTMULlmYV_-oVux1v-39" value="" style="edgeStyle=orthogonalEdgeStyle;rounded=0;orthogonalLoop=1;jettySize=auto;html=1;" edge="1" parent="1" source="CemlTMULlmYV_-oVux1v-15" target="CemlTMULlmYV_-oVux1v-38">
          <mxGeometry relative="1" as="geometry" />
        </mxCell>
        <mxCell id="CemlTMULlmYV_-oVux1v-15" value="Endereço" style="whiteSpace=wrap;html=1;rounded=0;" vertex="1" parent="1">
          <mxGeometry x="550" y="760" width="120" height="60" as="geometry" />
        </mxCell>
        <mxCell id="CemlTMULlmYV_-oVux1v-21" style="edgeStyle=orthogonalEdgeStyle;rounded=0;orthogonalLoop=1;jettySize=auto;html=1;" edge="1" parent="1" source="CemlTMULlmYV_-oVux1v-19" target="CemlTMULlmYV_-oVux1v-3">
          <mxGeometry relative="1" as="geometry" />
        </mxCell>
        <mxCell id="CemlTMULlmYV_-oVux1v-29" value="" style="edgeStyle=orthogonalEdgeStyle;rounded=0;orthogonalLoop=1;jettySize=auto;html=1;" edge="1" parent="1" source="CemlTMULlmYV_-oVux1v-19" target="CemlTMULlmYV_-oVux1v-28">
          <mxGeometry relative="1" as="geometry" />
        </mxCell>
        <mxCell id="CemlTMULlmYV_-oVux1v-19" value="Listar clientes" style="whiteSpace=wrap;html=1;" vertex="1" parent="1">
          <mxGeometry x="340" y="180" width="120" height="60" as="geometry" />
        </mxCell>
        <mxCell id="CemlTMULlmYV_-oVux1v-25" value="Sim" style="edgeStyle=orthogonalEdgeStyle;rounded=0;orthogonalLoop=1;jettySize=auto;html=1;entryX=1;entryY=0.5;entryDx=0;entryDy=0;exitX=1;exitY=0.5;exitDx=0;exitDy=0;" edge="1" parent="1" source="CemlTMULlmYV_-oVux1v-22">
          <mxGeometry relative="1" as="geometry">
            <mxPoint x="620" y="1130" as="sourcePoint" />
            <mxPoint x="470" y="170" as="targetPoint" />
            <Array as="points">
              <mxPoint x="770" y="1120" />
              <mxPoint x="770" y="170" />
            </Array>
          </mxGeometry>
        </mxCell>
        <mxCell id="CemlTMULlmYV_-oVux1v-26" value="Não" style="edgeStyle=orthogonalEdgeStyle;rounded=0;orthogonalLoop=1;jettySize=auto;html=1;entryX=0;entryY=0.5;entryDx=0;entryDy=0;" edge="1" parent="1" source="CemlTMULlmYV_-oVux1v-22" target="CemlTMULlmYV_-oVux1v-3">
          <mxGeometry relative="1" as="geometry">
            <Array as="points">
              <mxPoint x="520" y="1120" />
              <mxPoint x="520" y="300" />
            </Array>
          </mxGeometry>
        </mxCell>
        <mxCell id="CemlTMULlmYV_-oVux1v-22" value="Dados validados?" style="rhombus;whiteSpace=wrap;html=1;rounded=0;" vertex="1" parent="1">
          <mxGeometry x="570" y="1080" width="80" height="80" as="geometry" />
        </mxCell>
        <mxCell id="CemlTMULlmYV_-oVux1v-31" value="" style="edgeStyle=orthogonalEdgeStyle;rounded=0;orthogonalLoop=1;jettySize=auto;html=1;" edge="1" parent="1" source="CemlTMULlmYV_-oVux1v-28" target="CemlTMULlmYV_-oVux1v-30">
          <mxGeometry relative="1" as="geometry" />
        </mxCell>
        <mxCell id="CemlTMULlmYV_-oVux1v-28" value="Buscar cliente" style="whiteSpace=wrap;html=1;" vertex="1" parent="1">
          <mxGeometry x="130" y="270" width="120" height="60" as="geometry" />
        </mxCell>
        <mxCell id="CemlTMULlmYV_-oVux1v-33" value="Não" style="edgeStyle=orthogonalEdgeStyle;rounded=0;orthogonalLoop=1;jettySize=auto;html=1;" edge="1" parent="1" source="CemlTMULlmYV_-oVux1v-30" target="CemlTMULlmYV_-oVux1v-32">
          <mxGeometry relative="1" as="geometry" />
        </mxCell>
        <mxCell id="CemlTMULlmYV_-oVux1v-37" value="" style="edgeStyle=orthogonalEdgeStyle;rounded=0;orthogonalLoop=1;jettySize=auto;html=1;" edge="1" parent="1" source="CemlTMULlmYV_-oVux1v-30" target="CemlTMULlmYV_-oVux1v-36">
          <mxGeometry relative="1" as="geometry" />
        </mxCell>
        <mxCell id="CemlTMULlmYV_-oVux1v-30" value="Cliente encontrado?" style="rhombus;whiteSpace=wrap;html=1;" vertex="1" parent="1">
          <mxGeometry x="150" y="410" width="80" height="80" as="geometry" />
        </mxCell>
        <mxCell id="CemlTMULlmYV_-oVux1v-34" value="Sim" style="edgeStyle=orthogonalEdgeStyle;rounded=0;orthogonalLoop=1;jettySize=auto;html=1;entryX=0;entryY=0.25;entryDx=0;entryDy=0;" edge="1" parent="1" source="CemlTMULlmYV_-oVux1v-32" target="CemlTMULlmYV_-oVux1v-3">
          <mxGeometry relative="1" as="geometry" />
        </mxCell>
        <mxCell id="CemlTMULlmYV_-oVux1v-35" value="Não" style="edgeStyle=orthogonalEdgeStyle;rounded=0;orthogonalLoop=1;jettySize=auto;html=1;entryX=1;entryY=0.5;entryDx=0;entryDy=0;" edge="1" parent="1" source="CemlTMULlmYV_-oVux1v-32" target="CemlTMULlmYV_-oVux1v-28">
          <mxGeometry relative="1" as="geometry">
            <Array as="points">
              <mxPoint x="340" y="300" />
            </Array>
          </mxGeometry>
        </mxCell>
        <mxCell id="CemlTMULlmYV_-oVux1v-32" value="Deseja cadastrar cliente?" style="rhombus;whiteSpace=wrap;html=1;" vertex="1" parent="1">
          <mxGeometry x="300" y="410" width="80" height="80" as="geometry" />
        </mxCell>
        <mxCell id="CemlTMULlmYV_-oVux1v-42" value="" style="edgeStyle=orthogonalEdgeStyle;rounded=0;orthogonalLoop=1;jettySize=auto;html=1;exitX=1;exitY=1;exitDx=0;exitDy=0;" edge="1" parent="1" source="CemlTMULlmYV_-oVux1v-36" target="CemlTMULlmYV_-oVux1v-41">
          <mxGeometry relative="1" as="geometry">
            <Array as="points">
              <mxPoint x="250" y="610" />
            </Array>
          </mxGeometry>
        </mxCell>
        <mxCell id="CemlTMULlmYV_-oVux1v-49" value="" style="edgeStyle=orthogonalEdgeStyle;rounded=0;orthogonalLoop=1;jettySize=auto;html=1;" edge="1" parent="1" source="CemlTMULlmYV_-oVux1v-36" target="CemlTMULlmYV_-oVux1v-48">
          <mxGeometry relative="1" as="geometry" />
        </mxCell>
        <mxCell id="CemlTMULlmYV_-oVux1v-36" value="Atualizar cliente" style="whiteSpace=wrap;html=1;" vertex="1" parent="1">
          <mxGeometry x="130" y="580" width="120" height="60" as="geometry" />
        </mxCell>
        <mxCell id="CemlTMULlmYV_-oVux1v-40" style="edgeStyle=orthogonalEdgeStyle;rounded=0;orthogonalLoop=1;jettySize=auto;html=1;" edge="1" parent="1" source="CemlTMULlmYV_-oVux1v-38" target="CemlTMULlmYV_-oVux1v-22">
          <mxGeometry relative="1" as="geometry" />
        </mxCell>
        <mxCell id="CemlTMULlmYV_-oVux1v-38" value="Email" style="whiteSpace=wrap;html=1;rounded=0;" vertex="1" parent="1">
          <mxGeometry x="550" y="900" width="120" height="60" as="geometry" />
        </mxCell>
        <mxCell id="CemlTMULlmYV_-oVux1v-43" value="Sim" style="edgeStyle=orthogonalEdgeStyle;rounded=0;orthogonalLoop=1;jettySize=auto;html=1;entryX=0;entryY=0.5;entryDx=0;entryDy=0;" edge="1" parent="1" source="CemlTMULlmYV_-oVux1v-41" target="CemlTMULlmYV_-oVux1v-11">
          <mxGeometry relative="1" as="geometry" />
        </mxCell>
        <mxCell id="CemlTMULlmYV_-oVux1v-51" value="Não" style="edgeStyle=orthogonalEdgeStyle;rounded=0;orthogonalLoop=1;jettySize=auto;html=1;" edge="1" parent="1" source="CemlTMULlmYV_-oVux1v-41" target="CemlTMULlmYV_-oVux1v-50">
          <mxGeometry relative="1" as="geometry" />
        </mxCell>
        <mxCell id="CemlTMULlmYV_-oVux1v-41" value="Trocou telefone?" style="rhombus;whiteSpace=wrap;html=1;" vertex="1" parent="1">
          <mxGeometry x="300" y="570" width="80" height="80" as="geometry" />
        </mxCell>
        <mxCell id="CemlTMULlmYV_-oVux1v-48" value="cliente&amp;nbsp; vivo?" style="rhombus;whiteSpace=wrap;html=1;" vertex="1" parent="1">
          <mxGeometry x="30" y="490" width="80" height="80" as="geometry" />
        </mxCell>
        <mxCell id="CemlTMULlmYV_-oVux1v-53" value="Não" style="edgeStyle=orthogonalEdgeStyle;rounded=0;orthogonalLoop=1;jettySize=auto;html=1;" edge="1" parent="1" source="CemlTMULlmYV_-oVux1v-50" target="CemlTMULlmYV_-oVux1v-52">
          <mxGeometry relative="1" as="geometry" />
        </mxCell>
        <mxCell id="CemlTMULlmYV_-oVux1v-54" value="SIm" style="edgeStyle=orthogonalEdgeStyle;rounded=0;orthogonalLoop=1;jettySize=auto;html=1;entryX=0;entryY=0.5;entryDx=0;entryDy=0;" edge="1" parent="1" source="CemlTMULlmYV_-oVux1v-50" target="CemlTMULlmYV_-oVux1v-15">
          <mxGeometry relative="1" as="geometry">
            <Array as="points">
              <mxPoint x="410" y="790" />
              <mxPoint x="410" y="790" />
            </Array>
          </mxGeometry>
        </mxCell>
        <mxCell id="CemlTMULlmYV_-oVux1v-50" value="Trocou endereço?" style="rhombus;whiteSpace=wrap;html=1;" vertex="1" parent="1">
          <mxGeometry x="300" y="750" width="80" height="80" as="geometry" />
        </mxCell>
        <mxCell id="CemlTMULlmYV_-oVux1v-55" value="Sim" style="edgeStyle=orthogonalEdgeStyle;rounded=0;orthogonalLoop=1;jettySize=auto;html=1;entryX=0;entryY=0.5;entryDx=0;entryDy=0;" edge="1" parent="1" source="CemlTMULlmYV_-oVux1v-52" target="CemlTMULlmYV_-oVux1v-38">
          <mxGeometry relative="1" as="geometry" />
        </mxCell>
        <mxCell id="CemlTMULlmYV_-oVux1v-52" value="Trocou email?" style="rhombus;whiteSpace=wrap;html=1;" vertex="1" parent="1">
          <mxGeometry x="300" y="890" width="80" height="80" as="geometry" />
        </mxCell>
      </root>
    </mxGraphModel>
  </diagram>
</mxfile>
